<svg width="24" height="24" viewBox="0 0 24 24" fill="none" xmlns="http://www.w3.org/2000/svg">
<path fill-rule="evenodd" clip-rule="evenodd" d="M19.9707 11.3333H23.3333C23.5101 11.3333 23.6797 11.4036 23.8047 11.5286C23.9298 11.6536 24 11.8232 24 12C24 12.1768 23.9298 12.3464 23.8047 12.4714C23.6797 12.5964 23.5101 12.6667 23.3333 12.6667H19.9707C19.8128 14.551 18.9925 16.3184 17.6555 17.6555C16.3184 18.9925 14.551 19.8128 12.6667 19.9707V23.3333C12.6667 23.5101 12.5964 23.6797 12.4714 23.8047C12.3464 23.9298 12.1768 24 12 24C11.8232 24 11.6536 23.9298 11.5286 23.8047C11.4036 23.6797 11.3333 23.5101 11.3333 23.3333V19.9707C9.44905 19.8128 7.6816 18.9925 6.34454 17.6555C5.00747 16.3184 4.18724 14.551 4.02933 12.6667H0.666667C0.489856 12.6667 0.320286 12.5964 0.195262 12.4714C0.0702379 12.3464 0 12.1768 0 12C0 11.8232 0.0702379 11.6536 0.195262 11.5286C0.320286 11.4036 0.489856 11.3333 0.666667 11.3333H4.02933C4.18724 9.44905 5.00747 7.6816 6.34454 6.34454C7.6816 5.00747 9.44905 4.18724 11.3333 4.02933V0.666667C11.3333 0.489856 11.4036 0.320286 11.5286 0.195262C11.6536 0.0702379 11.8232 0 12 0C12.1768 0 12.3464 0.0702379 12.4714 0.195262C12.5964 0.320286 12.6667 0.489856 12.6667 0.666667V4.02933C14.551 4.18724 16.3184 5.00747 17.6555 6.34454C18.9925 7.6816 19.8128 9.44905 19.9707 11.3333ZM12.6667 17.6V18.632C14.1964 18.478 15.6258 17.8 16.7129 16.7129C17.8 15.6258 18.478 14.1964 18.632 12.6667H17.6C17.4232 12.6667 17.2536 12.5964 17.1286 12.4714C17.0036 12.3464 16.9333 12.1768 16.9333 12C16.9333 11.8232 17.0036 11.6536 17.1286 11.5286C17.2536 11.4036 17.4232 11.3333 17.6 11.3333H18.632C18.478 9.80365 17.8 8.37421 16.7129 7.28709C15.6258 6.19997 14.1964 5.522 12.6667 5.368V6.4C12.6667 6.57681 12.5964 6.74638 12.4714 6.8714C12.3464 6.99643 12.1768 7.06667 12 7.06667C11.8232 7.06667 11.6536 6.99643 11.5286 6.8714C11.4036 6.74638 11.3333 6.57681 11.3333 6.4V5.368C9.80365 5.522 8.37421 6.19997 7.28709 7.28709C6.19997 8.37421 5.522 9.80365 5.368 11.3333H6.4C6.57681 11.3333 6.74638 11.4036 6.8714 11.5286C6.99643 11.6536 7.06667 11.8232 7.06667 12C7.06667 12.1768 6.99643 12.3464 6.8714 12.4714C6.74638 12.5964 6.57681 12.6667 6.4 12.6667H5.368C5.522 14.1964 6.19997 15.6258 7.28709 16.7129C8.37421 17.8 9.80365 18.478 11.3333 18.632V17.6C11.3333 17.4232 11.4036 17.2536 11.5286 17.1286C11.6536 17.0036 11.8232 16.9333 12 16.9333C12.1768 16.9333 12.3464 17.0036 12.4714 17.1286C12.5964 17.2536 12.6667 17.4232 12.6667 17.6ZM9.99995 9.00671C10.592 8.61114 11.288 8.4 12 8.4C12.9543 8.40141 13.8692 8.78115 14.544 9.45597C15.2189 10.1308 15.5986 11.0457 15.6 12C15.6 12.712 15.3889 13.408 14.9933 14.0001C14.5977 14.5921 14.0355 15.0535 13.3777 15.326C12.7198 15.5984 11.996 15.6697 11.2977 15.5308C10.5993 15.3919 9.95789 15.0491 9.45442 14.5456C8.95095 14.0421 8.60808 13.4007 8.46917 12.7023C8.33027 12.004 8.40156 11.2802 8.67404 10.6223C8.94651 9.96453 9.40793 9.40228 9.99995 9.00671ZM10.7407 13.8847C11.1135 14.1337 11.5517 14.2667 12 14.2667C12.6009 14.266 13.1771 14.0269 13.602 13.602C14.0269 13.1771 14.266 12.6009 14.2667 12C14.2667 11.5517 14.1337 11.1135 13.8847 10.7407C13.6356 10.368 13.2816 10.0774 12.8674 9.90587C12.4532 9.73431 11.9975 9.68943 11.5578 9.77689C11.1181 9.86435 10.7142 10.0802 10.3972 10.3972C10.0802 10.7142 9.86435 11.1181 9.77689 11.5578C9.68943 11.9975 9.73431 12.4532 9.90587 12.8674C10.0774 13.2816 10.368 13.6356 10.7407 13.8847Z" fill="url(#paint0_linear_5465_11)"/>
<defs>
<linearGradient id="paint0_linear_5465_11" x1="12" y1="0" x2="12" y2="24" gradientUnits="userSpaceOnUse">
<stop stop-color="#0B8140"/>
<stop offset="1" stop-color="#0A5129"/>
</linearGradient>
</defs>
</svg>
