<svg width="19" height="16" viewBox="0 0 19 16" fill="none" xmlns="http://www.w3.org/2000/svg">
<mask id="path-1-inside-1_12498_27" fill="white">
<path d="M1.02832 11.1421C1.9464 11.1421 2.82658 11.5059 3.47559 12.1548C4.12539 12.8038 4.49013 13.685 4.49023 14.603C4.49023 14.9845 4.18019 15.2952 3.79785 15.2954C3.41534 15.2954 3.10547 14.9847 3.10547 14.603C3.10525 13.4558 2.17479 12.5269 1.02832 12.5269C0.645879 12.5269 0.336046 12.216 0.335938 11.8345C0.335938 11.452 0.645812 11.1421 1.02832 11.1421ZM1.02832 8.37256C2.68031 8.37431 4.26349 9.03247 5.43164 10.2007C6.59964 11.3679 7.25609 12.9513 7.25879 14.603C7.25879 14.9847 6.94891 15.2954 6.56641 15.2954C6.18404 15.2952 5.87402 14.9846 5.87402 14.603C5.87132 13.3181 5.35985 12.0878 4.45215 11.1792C3.54352 10.2707 2.31241 9.75907 1.02832 9.75732C0.645812 9.75732 0.335938 9.44658 0.335938 9.06494C0.336025 8.68252 0.645866 8.37256 1.02832 8.37256ZM15.7979 0.987793C17.1997 0.987832 18.3359 2.12499 18.3359 3.52686V12.7563C18.3359 14.1582 17.1997 15.2954 15.7979 15.2954H8.52344C8.60124 15.0723 8.64182 14.8383 8.64355 14.603C8.64078 12.5844 7.83781 10.6489 6.41016 9.22119C4.98324 7.79425 3.04724 6.98954 1.02832 6.98779C0.792936 6.98952 0.55834 7.03003 0.335938 7.10791V3.52686C0.335938 2.12497 1.47214 0.987836 2.87402 0.987793L15.7979 0.98877V0.987793ZM1.02832 13.9116C1.30952 13.9073 1.56402 14.0729 1.6748 14.3315C1.7847 14.5903 1.7276 14.8895 1.53027 15.0894C1.33295 15.2891 1.03396 15.3501 0.774414 15.2437C0.514963 15.1372 0.345703 14.8833 0.345703 14.603C0.345923 14.2242 0.649428 13.9168 1.02832 13.9116Z"/>
</mask>
<path d="M1.02832 11.1421L1.02834 10.1421H1.02832V11.1421ZM3.47559 12.1548L2.76855 12.862L2.76893 12.8623L3.47559 12.1548ZM4.49023 14.603L5.49023 14.603L5.49023 14.6029L4.49023 14.603ZM3.79785 15.2954L3.79785 16.2954L3.79838 16.2954L3.79785 15.2954ZM3.10547 14.603L4.10547 14.603L4.10547 14.6028L3.10547 14.603ZM1.02832 12.5269L1.02836 11.5269H1.02832V12.5269ZM0.335938 11.8345L-0.664063 11.8345L-0.664062 11.8348L0.335938 11.8345ZM1.02832 8.37256L1.02938 7.37256H1.02832V8.37256ZM5.43164 10.2007L4.72451 10.9078L4.72476 10.908L5.43164 10.2007ZM7.25879 14.603L8.25879 14.603L8.25879 14.6014L7.25879 14.603ZM6.56641 15.2954L6.56598 16.2954H6.56641V15.2954ZM5.87402 14.603L6.87403 14.603L6.87402 14.6009L5.87402 14.603ZM4.45215 11.1792L5.15962 10.4725L5.1592 10.472L4.45215 11.1792ZM1.02832 9.75732L1.02968 8.75732H1.02832V9.75732ZM0.335938 9.06494L-0.664062 9.06471V9.06494H0.335938ZM15.7979 0.987793L15.7979 -0.012207C15.5327 -0.0122145 15.2783 0.093139 15.0908 0.280676C14.9032 0.468213 14.7979 0.722572 14.7979 0.987793L15.7979 0.987793ZM15.7979 15.2954L15.7979 16.2954L15.7979 16.2954L15.7979 15.2954ZM8.52344 15.2954L7.57919 14.9662C7.47256 15.272 7.52064 15.6105 7.7082 15.8745C7.89576 16.1386 8.19957 16.2954 8.52344 16.2954V15.2954ZM8.64355 14.603L9.64357 14.6104L9.64355 14.6017L8.64355 14.603ZM6.41016 9.22119L7.11728 8.5141L7.11727 8.51409L6.41016 9.22119ZM1.02832 6.98779L1.02919 5.98776L1.02097 5.98782L1.02832 6.98779ZM0.335938 7.10791H-0.664062C-0.664062 7.43202 -0.506986 7.73602 -0.242635 7.92354C0.0217154 8.11106 0.360552 8.15883 0.666445 8.05171L0.335938 7.10791ZM2.87402 0.987793L2.8741 -0.012207L2.87399 -0.012207L2.87402 0.987793ZM15.7979 0.98877L15.7978 1.98877C16.063 1.98879 16.3174 1.88344 16.5049 1.6959C16.6925 1.50836 16.7979 1.254 16.7979 0.98877H15.7979ZM1.02832 13.9116L1.04202 14.9115L1.04366 14.9115L1.02832 13.9116ZM1.6748 14.3315L2.59523 13.9406L2.59405 13.9379L1.6748 14.3315ZM1.53027 15.0894L2.24169 15.7921L2.24195 15.7919L1.53027 15.0894ZM0.774414 15.2437L0.394693 16.1688L0.395074 16.1689L0.774414 15.2437ZM0.345703 14.603L-0.654297 14.6024V14.603H0.345703ZM1.02832 11.1421L1.0283 12.1421C1.6818 12.1421 2.3075 12.401 2.76855 12.862L3.47559 12.1548L4.18262 11.4476C3.34567 10.6108 2.21099 10.1421 1.02834 10.1421L1.02832 11.1421ZM3.47559 12.1548L2.76893 12.8623C3.23063 13.3235 3.49016 13.9501 3.49023 14.6031L4.49023 14.603L5.49023 14.6029C5.49009 13.42 5.02015 12.2841 4.18224 11.4472L3.47559 12.1548ZM4.49023 14.603H3.49023C3.49023 14.4325 3.6275 14.2955 3.79732 14.2954L3.79785 15.2954L3.79838 16.2954C4.73288 16.2949 5.49023 15.5365 5.49023 14.603H4.49023ZM3.79785 15.2954V14.2954C3.96845 14.2954 4.10547 14.4332 4.10547 14.603H3.10547H2.10547C2.10547 15.5361 2.86224 16.2954 3.79785 16.2954V15.2954ZM3.10547 14.603L4.10547 14.6028C4.10514 12.9027 2.72636 11.5269 1.02836 11.5269L1.02832 12.5269L1.02828 13.5269C1.62321 13.5269 2.10535 14.0088 2.10547 14.6032L3.10547 14.603ZM1.02832 12.5269V11.5269C1.19927 11.5269 1.33589 11.6648 1.33594 11.8342L0.335938 11.8345L-0.664062 11.8348C-0.663796 12.7673 0.0924913 13.5269 1.02832 13.5269V12.5269ZM0.335938 11.8345H1.33594C1.33594 12.0042 1.1981 12.1421 1.02832 12.1421V11.1421V10.1421C0.0935191 10.1421 -0.664062 10.8997 -0.664062 11.8345H0.335938ZM1.02832 8.37256L1.02726 9.37256C2.41382 9.37403 3.74323 9.92644 4.72452 10.9078L5.43164 10.2007L6.13877 9.4936C4.78374 8.1385 2.9468 7.37459 1.02938 7.37256L1.02832 8.37256ZM5.43164 10.2007L4.72476 10.908C5.7051 11.8877 6.25652 13.2172 6.25879 14.6047L7.25879 14.603L8.25879 14.6014C8.25566 12.6855 7.49417 10.8481 6.13852 9.49335L5.43164 10.2007ZM7.25879 14.603H6.25879C6.25879 14.4332 6.39581 14.2954 6.56641 14.2954V15.2954V16.2954C7.50202 16.2954 8.25879 15.5361 8.25879 14.603H7.25879ZM6.56641 15.2954L6.56683 14.2954C6.73681 14.2955 6.87402 14.4327 6.87402 14.603H5.87402H4.87402C4.87402 15.5365 5.63126 16.295 6.56598 16.2954L6.56641 15.2954ZM5.87402 14.603L6.87402 14.6009C6.87076 13.0514 6.25389 11.5679 5.15962 10.4725L4.45215 11.1792L3.74468 11.8859C4.46581 12.6078 4.87188 13.5848 4.87403 14.6051L5.87402 14.603ZM4.45215 11.1792L5.1592 10.472C4.06373 9.37672 2.57898 8.75943 1.02968 8.75733L1.02832 9.75732L1.02696 10.7573C2.04584 10.7587 3.02332 11.1647 3.74509 11.8864L4.45215 11.1792ZM1.02832 9.75732V8.75732C1.19892 8.75732 1.33594 8.89511 1.33594 9.06494H0.335938H-0.664062C-0.664062 9.99804 0.0927069 10.7573 1.02832 10.7573V9.75732ZM0.335938 9.06494L1.33594 9.06517C1.3359 9.23462 1.19839 9.37256 1.02832 9.37256V8.37256V7.37256C0.0933453 7.37256 -0.663849 8.13042 -0.664062 9.06471L0.335938 9.06494ZM15.7979 0.987793L15.7978 1.98779C16.647 1.98782 17.3359 2.6768 17.3359 3.52686H18.3359H19.3359C19.3359 1.57319 17.7525 -0.0121519 15.7979 -0.012207L15.7979 0.987793ZM18.3359 3.52686H17.3359V12.7563H18.3359H19.3359V3.52686H18.3359ZM18.3359 12.7563H17.3359C17.3359 13.6064 16.647 14.2954 15.7978 14.2954L15.7979 15.2954L15.7979 16.2954C17.7525 16.2954 19.3359 14.71 19.3359 12.7563H18.3359ZM15.7979 15.2954V14.2954H8.52344V15.2954V16.2954H15.7979V15.2954ZM8.52344 15.2954L9.46769 15.6246C9.58143 15.2984 9.64099 14.9557 9.64353 14.6104L8.64355 14.603L7.64358 14.5957C7.64266 14.7208 7.62106 14.8461 7.57919 14.9662L8.52344 15.2954ZM8.64355 14.603L9.64355 14.6017C9.64042 12.3184 8.73217 10.1291 7.11728 8.5141L6.41016 9.22119L5.70303 9.92828C6.94345 11.1688 7.64114 12.8505 7.64356 14.6044L8.64355 14.603ZM6.41016 9.22119L7.11727 8.51409C5.50341 6.9002 3.31356 5.98977 1.02919 5.98779L1.02832 6.98779L1.02745 7.98779C2.78092 7.98931 4.46308 8.68829 5.70304 9.92829L6.41016 9.22119ZM1.02832 6.98779L1.02097 5.98782C0.676219 5.99035 0.332394 6.04961 0.00543045 6.16411L0.335938 7.10791L0.666445 8.05171C0.784286 8.01045 0.909652 7.98869 1.03567 7.98777L1.02832 6.98779ZM0.335938 7.10791H1.33594V3.52686H0.335938H-0.664062V7.10791H0.335938ZM0.335938 3.52686H1.33594C1.33594 2.67679 2.02491 1.98782 2.87405 1.98779L2.87402 0.987793L2.87399 -0.012207C0.919379 -0.0121464 -0.664062 1.57316 -0.664062 3.52686H0.335938ZM2.87402 0.987793L2.87395 1.98779L15.7978 1.98877L15.7979 0.98877L15.7979 -0.0112305L2.8741 -0.012207L2.87402 0.987793ZM15.7979 0.98877H16.7979V0.987793H15.7979H14.7979V0.98877H15.7979ZM1.02832 13.9116L1.04366 14.9115C0.917854 14.9134 0.803962 14.8382 0.75556 14.7252L1.6748 14.3315L2.59405 13.9379C2.32408 13.3075 1.70119 12.9012 1.01298 12.9117L1.02832 13.9116ZM1.6748 14.3315L0.754381 14.7225C0.705904 14.6083 0.730997 14.4756 0.818599 14.3868L1.53027 15.0894L2.24195 15.7919C2.7242 15.3033 2.8635 14.5723 2.59523 13.9406L1.6748 14.3315ZM1.53027 15.0894L0.818859 14.3866C0.906327 14.298 1.0381 14.271 1.15375 14.3184L0.774414 15.2437L0.395074 16.1689C1.02981 16.4291 1.75957 16.2802 2.24169 15.7921L1.53027 15.0894ZM0.774414 15.2437L1.15414 14.3186C1.27197 14.3669 1.3457 14.4799 1.3457 14.603H0.345703H-0.654297C-0.654297 15.2867 -0.242046 15.9074 0.394693 16.1688L0.774414 15.2437ZM0.345703 14.603L1.3457 14.6036C1.34561 14.7718 1.20946 14.9092 1.04202 14.9115L1.02832 13.9116L1.01462 12.9117C0.0893945 12.9244 -0.653758 13.6766 -0.654297 14.6024L0.345703 14.603Z" fill="#0B8140" mask="url(#path-1-inside-1_12498_27)"/>
</svg>
