<svg width="21" height="16" viewBox="0 0 21 16" fill="none" xmlns="http://www.w3.org/2000/svg">
<mask id="path-1-inside-1_12498_18" fill="white">
<path d="M14.3799 4.74072C14.5183 4.74076 14.6525 4.76963 14.7705 4.8335C14.8592 4.87609 14.9381 4.93191 15.002 4.99756C15.5859 5.58594 16.167 6.18091 16.751 6.77197C17.3322 7.3674 17.9192 7.9624 18.5049 8.55518C18.8049 8.85963 18.9667 9.27669 18.9463 9.70361C18.9216 10.2573 19.0979 10.76 19.4502 11.1167L20.1162 11.7905C20.3184 11.9972 20.3114 12.3336 20.1006 12.5493L16.8672 15.8208C16.6648 16.0249 16.3146 16.0326 16.1211 15.8374C16.1096 15.8259 16.0977 15.8172 16.0889 15.8101C15.5075 15.4018 14.8367 15.187 14.1621 15.187C13.8471 15.187 13.5312 15.2354 13.2197 15.3286C12.8221 15.452 12.4581 15.4653 12.1377 15.3677C11.7517 15.247 11.3747 14.8716 11.0703 14.5698L9.58594 13.1411C9.41107 12.9751 9.31126 12.7493 9.30859 12.5132C9.30417 12.286 9.39049 12.0726 9.54492 11.9155C9.59004 11.8704 9.61317 11.8096 9.61328 11.7485C9.61328 11.6873 9.59019 11.628 9.54492 11.5845L4.75 6.73291C4.44584 6.42398 4.47808 5.8903 4.82324 5.54248C4.99362 5.36959 5.21387 5.26815 5.43652 5.25928L5.44043 5.25342C5.66053 5.23922 5.85906 5.31466 6.00195 5.45752L9.36914 8.86865C9.41433 8.91207 9.4711 8.93693 9.53223 8.93701H9.53516C9.59372 8.93701 9.65298 8.91212 9.69824 8.86865L9.71582 8.85107C9.79304 8.77386 9.80414 8.6545 9.75 8.56396C9.54618 8.22775 9.6072 7.78458 9.90234 7.48291C10.0701 7.31516 10.2889 7.21755 10.5205 7.21045C10.6749 7.20869 10.8363 7.24899 10.9658 7.33057C11.02 7.3643 11.0685 7.40107 11.1094 7.44189L11.2705 7.60498C11.314 7.65021 11.3726 7.68239 11.4365 7.67529C11.495 7.67526 11.5544 7.6503 11.5996 7.60693L11.6338 7.5708C11.7083 7.49803 11.7235 7.38594 11.6738 7.29541C11.6082 7.16761 11.5723 7.02449 11.5723 6.87451C11.5696 6.63577 11.6631 6.41043 11.8291 6.24268C11.995 6.07504 12.2174 5.98198 12.4561 5.98193C12.599 5.98193 12.738 6.01755 12.8721 6.09033C12.9421 6.12403 13.0101 6.17403 13.0713 6.23779L13.1738 6.34326C13.219 6.38649 13.2776 6.41162 13.3369 6.41162H13.3398C13.3982 6.41149 13.4578 6.38658 13.5029 6.34326L13.5439 6.29932C13.6164 6.22929 13.6321 6.12033 13.5889 6.03174C13.5214 5.89504 13.4909 5.74983 13.498 5.59717C13.5069 5.3744 13.5978 5.16326 13.7549 5.00439C13.9146 4.84376 14.1206 4.75075 14.3301 4.74365C14.346 4.74365 14.3622 4.74338 14.3799 4.74072ZM4.46387 0.987793C5.58563 0.987851 6.64299 1.42772 7.43555 2.22998C8.70567 3.51355 9.01901 5.46595 8.24414 7.07959L7.71484 6.54053C8.21449 5.26775 7.95827 3.7615 6.94043 2.73193C6.2791 2.06624 5.39868 1.6958 4.46484 1.6958C3.53118 1.69592 2.65139 2.06635 1.99023 2.73193C0.624507 4.11116 0.624417 6.35438 1.99023 7.73096C2.65145 8.39831 3.53127 8.76599 4.46484 8.76611C4.94237 8.76611 5.40395 8.6717 5.8291 8.48975L6.35352 9.02197C4.74533 9.84364 2.7853 9.53956 1.49219 8.23584C-0.146283 6.57962 -0.146283 3.88442 1.49219 2.22998C2.28475 1.43044 3.34121 0.987793 4.46387 0.987793ZM4.46582 2.16748C5.27707 2.16748 6.03814 2.48605 6.61328 3.06299C7.44214 3.90359 7.68794 5.11257 7.35156 6.17139L6.32617 5.13525C6.08479 4.89485 5.76244 4.77456 5.41016 4.79053L5.41406 4.7876C5.07326 4.80357 4.74789 4.953 4.49316 5.20947C3.97042 5.74108 3.93907 6.57018 4.4209 7.06104L5.46777 8.12256C5.14739 8.23347 4.81369 8.29736 4.46582 8.29736C3.65482 8.29732 2.89174 7.98019 2.31934 7.40088C1.13531 6.20524 1.13531 4.25856 2.31934 3.06299C2.89176 2.48529 3.6547 2.16753 4.46582 2.16748Z"/>
</mask>
<path d="M14.3799 4.74072L14.3802 3.74072C14.3304 3.74071 14.2807 3.74441 14.2315 3.75179L14.3799 4.74072ZM14.7705 4.8335L14.2944 5.7129C14.3087 5.7206 14.3231 5.72795 14.3376 5.73494L14.7705 4.8335ZM15.002 4.99756L14.2852 5.69495L14.2922 5.70199L15.002 4.99756ZM16.751 6.77197L17.4666 6.07344L17.4623 6.06916L16.751 6.77197ZM18.5049 8.55518L19.2172 7.85329L19.2162 7.85235L18.5049 8.55518ZM18.9463 9.70361L17.9474 9.65585L17.9473 9.65899L18.9463 9.70361ZM19.4502 11.1167L18.7387 11.8194L18.739 11.8197L19.4502 11.1167ZM20.1162 11.7905L20.8309 11.0911L20.8274 11.0876L20.1162 11.7905ZM20.1006 12.5493L20.8118 13.2523L20.8157 13.2483L20.1006 12.5493ZM16.8672 15.8208L17.5774 16.5248L17.5784 16.5238L16.8672 15.8208ZM16.1211 15.8374L16.8313 15.1334L16.8282 15.1303L16.1211 15.8374ZM16.0889 15.8101L16.7136 15.0292C16.6973 15.0162 16.6806 15.0037 16.6636 14.9917L16.0889 15.8101ZM14.1621 15.187L14.1621 14.187L14.162 14.187L14.1621 15.187ZM13.2197 15.3286L12.9331 14.3705L12.9234 14.3735L13.2197 15.3286ZM12.1377 15.3677L11.8393 16.3221L11.8462 16.3243L12.1377 15.3677ZM11.0703 14.5698L11.7743 13.8596C11.7708 13.8562 11.7673 13.8527 11.7638 13.8493L11.0703 14.5698ZM9.58594 13.1411L10.2794 12.4206L10.2744 12.4158L9.58594 13.1411ZM9.30859 12.5132L10.3086 12.5019L10.3084 12.4937L9.30859 12.5132ZM9.54492 11.9155L8.83747 11.2087L8.8318 11.2145L9.54492 11.9155ZM9.61328 11.7485L10.6133 11.7503V11.7485H9.61328ZM9.54492 11.5845L8.83368 12.2874C8.83974 12.2935 8.84587 12.2996 8.85209 12.3056L9.54492 11.5845ZM4.75 6.73291L4.03742 7.4345L4.03875 7.43585L4.75 6.73291ZM4.82324 5.54248L5.53306 6.24687L5.53552 6.24438L4.82324 5.54248ZM5.43652 5.25928L5.47633 6.25848C5.79636 6.24573 6.09091 6.08047 6.26857 5.81398L5.43652 5.25928ZM5.44043 5.25342L5.37605 4.25549C5.06508 4.27555 4.78123 4.43944 4.60838 4.69872L5.44043 5.25342ZM6.00195 5.45752L6.71364 4.755L6.70897 4.75032L6.00195 5.45752ZM9.36914 8.86865L8.65746 9.57116C8.66367 9.57745 8.66996 9.58365 8.67633 9.58977L9.36914 8.86865ZM9.53223 8.93701L9.53084 9.93701H9.53223V8.93701ZM9.69824 8.86865L10.3909 9.58993C10.3958 9.58526 10.4006 9.58053 10.4053 9.57576L9.69824 8.86865ZM9.71582 8.85107L9.00874 8.14394L9.00871 8.14397L9.71582 8.85107ZM9.75 8.56396L10.6083 8.0507L10.6051 8.04557L9.75 8.56396ZM9.90234 7.48291L9.19521 6.77574L9.18755 6.78358L9.90234 7.48291ZM10.5205 7.21045L10.5091 6.21051C10.5027 6.21059 10.4963 6.21072 10.4899 6.21092L10.5205 7.21045ZM10.9658 7.33057L10.4329 8.17677L10.4371 8.17935L10.9658 7.33057ZM11.1094 7.44189L11.8207 6.73905L11.8165 6.73479L11.1094 7.44189ZM11.2705 7.60498L11.9915 6.91187L11.9819 6.90215L11.2705 7.60498ZM11.4365 7.67529L11.436 6.67529C11.3993 6.67531 11.3626 6.67735 11.3261 6.68141L11.4365 7.67529ZM11.5996 7.60693L12.2918 8.32868C12.3035 8.31745 12.3149 8.30593 12.3261 8.29413L11.5996 7.60693ZM11.6338 7.5708L10.9353 6.85519C10.9258 6.86447 10.9165 6.87394 10.9073 6.8836L11.6338 7.5708ZM11.6738 7.29541L10.7844 7.75247C10.7886 7.7606 10.7929 7.76866 10.7972 7.77667L11.6738 7.29541ZM11.5723 6.87451L12.5723 6.87445L12.5722 6.86338L11.5723 6.87451ZM11.8291 6.24268L11.1184 5.53919L11.1182 5.53934L11.8291 6.24268ZM12.4561 5.98193L12.4561 4.98193L12.4559 4.98193L12.4561 5.98193ZM12.8721 6.09033L12.3949 6.96912C12.4091 6.97687 12.4236 6.98428 12.4383 6.99134L12.8721 6.09033ZM13.0713 6.23779L12.3495 6.92993L12.3543 6.93487L13.0713 6.23779ZM13.1738 6.34326L12.4568 7.04034C12.4653 7.04905 12.4739 7.05761 12.4827 7.06601L13.1738 6.34326ZM13.3398 6.41162L13.3398 7.41162L13.3421 7.41162L13.3398 6.41162ZM13.5029 6.34326L14.1954 7.06475C14.2086 7.05205 14.2215 7.03899 14.234 7.02558L13.5029 6.34326ZM13.5439 6.29932L12.8491 5.58012C12.8367 5.5921 12.8247 5.60439 12.8129 5.617L13.5439 6.29932ZM13.5889 6.03174L14.4877 5.59344L14.4856 5.58921L13.5889 6.03174ZM13.498 5.59717L14.497 5.64363L14.4973 5.63707L13.498 5.59717ZM13.7549 5.00439L13.0458 4.29922L13.0438 4.30127L13.7549 5.00439ZM14.3301 4.74365L14.3301 3.74365C14.3188 3.74365 14.3075 3.74384 14.2962 3.74423L14.3301 4.74365ZM4.46387 0.987793L4.46392 -0.012207H4.46387V0.987793ZM7.43555 2.22998L6.72415 2.93277L6.72473 2.93335L7.43555 2.22998ZM8.24414 7.07959L7.5306 7.7802C7.75891 8.01273 8.0862 8.11942 8.40769 8.06613C8.72918 8.01283 9.00453 7.80623 9.14559 7.51247L8.24414 7.07959ZM7.71484 6.54053L6.784 6.17511C6.63989 6.54222 6.725 6.95974 7.0013 7.24114L7.71484 6.54053ZM6.94043 2.73193L7.65158 2.02889L7.64986 2.02716L6.94043 2.73193ZM4.46484 1.6958L4.46484 0.695801L4.46471 0.695801L4.46484 1.6958ZM1.99023 2.73193L1.28077 2.02719L1.27966 2.02831L1.99023 2.73193ZM1.99023 7.73096L2.7006 7.02712L2.70011 7.02663L1.99023 7.73096ZM4.46484 8.76611L4.46471 9.76611H4.46484V8.76611ZM5.8291 8.48975L6.54142 7.78789C6.25266 7.49483 5.81388 7.40853 5.43565 7.5704L5.8291 8.48975ZM6.35352 9.02197L6.8085 9.91247C7.09222 9.76751 7.28988 9.49603 7.34071 9.18151C7.39154 8.86698 7.28945 8.54706 7.06583 8.32011L6.35352 9.02197ZM1.49219 8.23584L0.781282 8.93913L0.782197 8.94005L1.49219 8.23584ZM1.49219 2.22998L0.781986 1.52598L0.781659 1.52631L1.49219 2.22998ZM4.46582 2.16748L4.46582 1.16748L4.46576 1.16748L4.46582 2.16748ZM6.61328 3.06299L7.32535 2.36086L7.32149 2.35698L6.61328 3.06299ZM7.35156 6.17139L6.64078 6.8748C6.88699 7.12359 7.24536 7.22554 7.58566 7.1436C7.92596 7.06166 8.19864 6.80776 8.30462 6.47416L7.35156 6.17139ZM6.32617 5.13525L7.03697 4.43182L7.03184 4.42672L6.32617 5.13525ZM5.41016 4.79053L4.81016 3.99053C4.45913 4.2538 4.32073 4.71515 4.46888 5.12816C4.61703 5.54118 5.01712 5.80937 5.45545 5.7895L5.41016 4.79053ZM5.41406 4.7876L6.01406 5.5876C6.36532 5.32416 6.50364 4.86241 6.35508 4.44924C6.20652 4.03607 5.80583 3.76814 5.36725 3.78869L5.41406 4.7876ZM4.49316 5.20947L3.78364 4.50477L3.78014 4.50833L4.49316 5.20947ZM4.4209 7.06104L3.70726 7.76155L3.7089 7.76321L4.4209 7.06104ZM5.46777 8.12256L5.79492 9.06753C6.11932 8.95522 6.36344 8.68437 6.44155 8.35008C6.51965 8.01579 6.42083 7.66481 6.17978 7.42038L5.46777 8.12256ZM4.46582 8.29736L4.46576 9.29736H4.46582V8.29736ZM2.31934 7.40088L3.03067 6.69803L3.02988 6.69723L2.31934 7.40088ZM2.31934 3.06299L1.609 2.35913L1.60881 2.35932L2.31934 3.06299ZM14.3799 4.74072L14.3796 5.74072C14.3795 5.74072 14.3776 5.74072 14.3739 5.74032C14.3702 5.73991 14.3645 5.73908 14.3571 5.73736C14.342 5.73387 14.3201 5.72677 14.2944 5.7129L14.7705 4.8335L15.2466 3.95409C14.9587 3.79824 14.6553 3.7408 14.3802 3.74072L14.3799 4.74072ZM14.7705 4.8335L14.3376 5.73494C14.3291 5.73085 14.3097 5.72003 14.2852 5.69492L15.002 4.99756L15.7187 4.3002C15.5665 4.14378 15.3893 4.02133 15.2034 3.93205L14.7705 4.8335ZM15.002 4.99756L14.2922 5.70199C14.8772 6.29149 15.4481 6.87609 16.0396 7.47479L16.751 6.77197L17.4623 6.06916C16.8859 5.48574 16.2946 4.88039 15.7117 4.29313L15.002 4.99756ZM16.751 6.77197L16.0354 7.4705C16.6189 8.06825 17.2077 8.6651 17.7935 9.258L18.5049 8.55518L19.2162 7.85235C18.6307 7.25971 18.0455 6.66655 17.4666 6.07345L16.751 6.77197ZM18.5049 8.55518L17.7926 9.25706C17.8993 9.36537 17.9543 9.51172 17.9474 9.65585L18.9463 9.70361L19.9451 9.75138C19.9791 9.04165 19.7104 8.35389 19.2172 7.8533L18.5049 8.55518ZM18.9463 9.70361L17.9473 9.65899C17.9119 10.452 18.1648 11.2383 18.7387 11.8194L19.4502 11.1167L20.1617 10.414C20.031 10.2817 19.9312 10.0627 19.9453 9.74823L18.9463 9.70361ZM19.4502 11.1167L18.739 11.8197L19.405 12.4935L20.1162 11.7905L20.8274 11.0876L20.1614 10.4137L19.4502 11.1167ZM20.1162 11.7905L19.4015 12.4899C19.1964 12.2804 19.2439 11.9951 19.3855 11.8503L20.1006 12.5493L20.8157 13.2483C21.3789 12.6721 21.4404 11.714 20.8309 11.0911L20.1162 11.7905ZM20.1006 12.5493L19.3894 11.8464L16.156 15.1178L16.8672 15.8208L17.5784 16.5238L20.8118 13.2523L20.1006 12.5493ZM16.8672 15.8208L16.157 15.1168C16.2548 15.0181 16.3713 14.9813 16.4687 14.9791C16.5651 14.977 16.7079 15.0089 16.8313 15.1334L16.1211 15.8374L15.4109 16.5414C16.0248 17.1608 17.0137 17.0934 17.5774 16.5248L16.8672 15.8208ZM16.1211 15.8374L16.8282 15.1303C16.7912 15.0933 16.7583 15.0654 16.7374 15.0483C16.7271 15.0398 16.7184 15.033 16.7143 15.0298C16.7076 15.0244 16.7115 15.0276 16.7136 15.0292L16.0889 15.8101L15.4642 16.5909C15.4684 16.5943 15.472 16.5972 15.474 16.5987C15.475 16.5995 15.476 16.6003 15.4766 16.6007C15.4772 16.6013 15.4775 16.6015 15.4777 16.6017C15.4787 16.6024 15.4754 16.5998 15.4706 16.5959C15.4607 16.5878 15.4395 16.57 15.414 16.5445L16.1211 15.8374ZM16.0889 15.8101L16.6636 14.9917C15.9207 14.47 15.0505 14.187 14.1621 14.187V15.187V16.187C14.6228 16.187 15.0943 16.3336 15.5142 16.6284L16.0889 15.8101ZM14.1621 15.187L14.162 14.187C13.744 14.187 13.3317 14.2513 12.9331 14.3706L13.2197 15.3286L13.5063 16.2867C13.7307 16.2195 13.9502 16.187 14.1622 16.187L14.1621 15.187ZM13.2197 15.3286L12.9234 14.3735C12.6698 14.4522 12.5155 14.4374 12.4292 14.4111L12.1377 15.3677L11.8462 16.3243C12.4008 16.4932 12.9744 16.4518 13.5161 16.2837L13.2197 15.3286ZM12.1377 15.3677L12.4361 14.4132C12.4361 14.4132 12.4346 14.4128 12.4314 14.4115C12.4282 14.4103 12.4236 14.4083 12.4176 14.4055C12.4053 14.3998 12.3885 14.391 12.3671 14.3781C12.3231 14.3515 12.2689 14.3133 12.2039 14.2605C12.0684 14.1504 11.9332 14.0171 11.7743 13.8596L11.0703 14.5698L10.3663 15.28C10.5118 15.4242 10.7173 15.6296 10.9429 15.8128C11.1626 15.9913 11.4692 16.2064 11.8393 16.3221L12.1377 15.3677ZM11.0703 14.5698L11.7638 13.8493L10.2794 12.4206L9.58594 13.1411L8.89247 13.8616L10.3768 15.2903L11.0703 14.5698ZM9.58594 13.1411L10.2744 12.4158C10.2907 12.4313 10.3081 12.461 10.3085 12.5019L9.30859 12.5132L8.30866 12.5245C8.31444 13.0375 8.53143 13.5189 8.89749 13.8664L9.58594 13.1411ZM9.30859 12.5132L10.3084 12.4937C10.3092 12.5354 10.2923 12.5818 10.258 12.6166L9.54492 11.9155L8.8318 11.2145C8.48873 11.5635 8.29913 12.0366 8.30878 12.5326L9.30859 12.5132ZM9.54492 11.9155L10.2523 12.6223C10.4958 12.3787 10.6127 12.0592 10.6133 11.7503L9.61328 11.7485L8.61328 11.7468C8.61361 11.56 8.68428 11.3621 8.8375 11.2087L9.54492 11.9155ZM9.61328 11.7485H10.6133C10.6133 11.436 10.4938 11.1094 10.2378 10.8634L9.54492 11.5845L8.85209 12.3056C8.68659 12.1466 8.61328 11.9386 8.61328 11.7485H9.61328ZM9.54492 11.5845L10.2562 10.8815L5.46125 6.02997L4.75 6.73291L4.03875 7.43585L8.83368 12.2874L9.54492 11.5845ZM4.75 6.73291L5.46258 6.03132C5.53344 6.10329 5.54321 6.18147 5.54126 6.21335C5.53941 6.24358 5.52906 6.25089 5.53306 6.24687L4.82324 5.54248L4.11343 4.83809C3.46282 5.49371 3.27354 6.65866 4.03742 7.4345L4.75 6.73291ZM4.82324 5.54248L5.53552 6.24438C5.53843 6.24142 5.53736 6.24363 5.52928 6.24736C5.52118 6.2511 5.50354 6.2574 5.47633 6.25848L5.43652 5.25928L5.39671 4.26007C4.89774 4.27995 4.44311 4.50352 4.11096 4.84058L4.82324 5.54248ZM5.43652 5.25928L6.26857 5.81398L6.27248 5.80812L5.44043 5.25342L4.60838 4.69872L4.60447 4.70458L5.43652 5.25928ZM5.44043 5.25342L5.50481 6.25134C5.48096 6.25288 5.4457 6.25009 5.40495 6.23511C5.36414 6.2201 5.32602 6.19579 5.29494 6.16472L6.00195 5.45752L6.70897 4.75032C6.35451 4.39596 5.87136 4.22354 5.37605 4.25549L5.44043 5.25342ZM6.00195 5.45752L5.29028 6.16003L8.65746 9.57116L9.36914 8.86865L10.0808 8.16614L6.71363 4.75501L6.00195 5.45752ZM9.36914 8.86865L8.67633 9.58977C8.88876 9.79386 9.18713 9.93653 9.53084 9.93701L9.53223 8.93701L9.53362 7.93701C9.75507 7.93732 9.9399 8.03027 10.062 8.14753L9.36914 8.86865ZM9.53223 8.93701V9.93701H9.53516V8.93701V7.93701H9.53223V8.93701ZM9.53516 8.93701V9.93701C9.87245 9.93701 10.1747 9.7975 10.3909 9.58993L9.69824 8.86865L9.0056 8.14737C9.13123 8.02673 9.31498 7.93701 9.53516 7.93701V8.93701ZM9.69824 8.86865L10.4053 9.57576L10.4229 9.55818L9.71582 8.85107L9.00871 8.14397L8.99114 8.16155L9.69824 8.86865ZM9.71582 8.85107L10.4229 9.55821C10.8388 9.14233 10.8869 8.51664 10.6082 8.05071L9.75 8.56396L8.89176 9.07722C8.72141 8.79236 8.74727 8.40539 9.00874 8.14394L9.71582 8.85107ZM9.75 8.56396L10.6051 8.04557C10.6294 8.08566 10.6328 8.12502 10.6294 8.14911C10.6278 8.16078 10.6247 8.16911 10.6221 8.17442C10.6194 8.17995 10.6171 8.18231 10.6171 8.18224L9.90234 7.48291L9.18755 6.78358C8.60233 7.38174 8.43345 8.32122 8.89486 9.08236L9.75 8.56396ZM9.90234 7.48291L10.6094 8.19004C10.6081 8.19139 10.6026 8.19625 10.5919 8.20101C10.5809 8.20588 10.5668 8.2095 10.5511 8.20998L10.5205 7.21045L10.4899 6.21092C9.99192 6.22618 9.53452 6.43654 9.19526 6.77578L9.90234 7.48291ZM10.5205 7.21045L10.5319 8.21038C10.5197 8.21052 10.5088 8.20919 10.4969 8.20604C10.4851 8.20294 10.4626 8.19545 10.4329 8.17676L10.9658 7.33057L11.4987 6.48437C11.1871 6.28815 10.8319 6.20683 10.5091 6.21051L10.5205 7.21045ZM10.9658 7.33057L10.4371 8.17935C10.4399 8.18111 10.4378 8.17998 10.4321 8.17559C10.4264 8.17119 10.4158 8.16252 10.4023 8.149L11.1094 7.44189L11.8165 6.73479C11.7088 6.62714 11.5957 6.54479 11.4946 6.48178L10.9658 7.33057ZM11.1094 7.44189L10.398 8.14473L10.5592 8.30781L11.2705 7.60498L11.9819 6.90215L11.8207 6.73906L11.1094 7.44189ZM11.2705 7.60498L10.5496 8.29803C10.7185 8.4737 11.0649 8.72274 11.547 8.66918L11.4365 7.67529L11.3261 6.68141C11.6804 6.64204 11.9095 6.82673 11.9914 6.91193L11.2705 7.60498ZM11.4365 7.67529L11.4371 8.67529C11.774 8.67511 12.076 8.53562 12.2918 8.32868L11.5996 7.60693L10.9075 6.88518C11.0328 6.76498 11.216 6.67541 11.436 6.67529L11.4365 7.67529ZM11.5996 7.60693L12.3261 8.29413L12.3603 8.258L11.6338 7.5708L10.9073 6.8836L10.8731 6.91973L11.5996 7.60693ZM11.6338 7.5708L12.3323 8.28642C12.7356 7.89279 12.8113 7.28933 12.5504 6.81415L11.6738 7.29541L10.7972 7.77667C10.6358 7.48256 10.6811 7.10326 10.9353 6.85519L11.6338 7.5708ZM11.6738 7.29541L12.5633 6.83835C12.566 6.84368 12.5684 6.84984 12.57 6.85652C12.5716 6.86328 12.5723 6.86946 12.5723 6.87445L11.5723 6.87451L10.5723 6.87457C10.5723 7.18577 10.6471 7.48532 10.7844 7.75247L11.6738 7.29541ZM11.5723 6.87451L12.5722 6.86338C12.5726 6.89694 12.5583 6.92745 12.54 6.94601L11.8291 6.24268L11.1182 5.53934C10.7679 5.89341 10.5666 6.3746 10.5723 6.88565L11.5723 6.87451ZM11.8291 6.24268L12.5398 6.94616C12.5302 6.95588 12.5166 6.96561 12.4998 6.97257C12.4831 6.97954 12.4676 6.98193 12.4563 6.98193L12.4561 5.98193L12.4559 4.98193C11.9512 4.98204 11.4728 5.18119 11.1184 5.53919L11.8291 6.24268ZM12.4561 5.98193V6.98193C12.4435 6.98193 12.4296 6.98025 12.4163 6.97679C12.4031 6.97339 12.3957 6.9696 12.3949 6.96912L12.8721 6.09033L13.3493 5.21155C13.075 5.0626 12.7726 4.98193 12.4561 4.98193V5.98193ZM12.8721 6.09033L12.4383 6.99134C12.3902 6.96819 12.3628 6.94373 12.3495 6.92991L13.0713 6.23779L13.7931 5.54567C13.6575 5.40433 13.4939 5.27987 13.3059 5.18933L12.8721 6.09033ZM13.0713 6.23779L12.3543 6.93487L12.4568 7.04034L13.1738 6.34326L13.8908 5.64618L13.7883 5.54071L13.0713 6.23779ZM13.1738 6.34326L12.4827 7.06601C12.6954 7.26934 12.9955 7.41162 13.3369 7.41162V6.41162V5.41162C13.5598 5.41162 13.7427 5.50363 13.8649 5.62051L13.1738 6.34326ZM13.3369 6.41162V7.41162H13.3398V6.41162V5.41162H13.3369V6.41162ZM13.3398 6.41162L13.3421 7.41162C13.6764 7.41088 13.9784 7.27294 14.1954 7.06475L13.5029 6.34326L12.8105 5.62178C12.9372 5.50022 13.1201 5.41211 13.3376 5.41162L13.3398 6.41162ZM13.5029 6.34326L14.234 7.02558L14.275 6.98163L13.5439 6.29932L12.8129 5.617L12.7719 5.66094L13.5029 6.34326ZM13.5439 6.29932L14.2387 7.01852C14.6403 6.63056 14.7098 6.04889 14.4877 5.59344L13.5889 6.03174L12.69 6.47003C12.5543 6.19177 12.5925 5.82802 12.8491 5.58012L13.5439 6.29932ZM13.5889 6.03174L14.4856 5.58921C14.488 5.59402 14.4917 5.60326 14.4943 5.61568C14.4969 5.62812 14.4972 5.63814 14.497 5.64363L13.498 5.59717L12.4991 5.55071C12.4841 5.87272 12.5499 6.18615 12.6921 6.47427L13.5889 6.03174ZM13.498 5.59717L14.4973 5.63707C14.4963 5.66121 14.4859 5.68732 14.4659 5.70752L13.7549 5.00439L13.0438 4.30127C12.7097 4.6392 12.5176 5.08758 12.4988 5.55726L13.498 5.59717ZM13.7549 5.00439L14.4639 5.70957C14.4589 5.71463 14.4288 5.74088 14.364 5.74308L14.3301 4.74365L14.2962 3.74423C13.8124 3.76062 13.3704 3.9729 13.0458 4.29922L13.7549 5.00439ZM14.3301 4.74365L14.3301 5.74365C14.355 5.74365 14.4331 5.74392 14.5282 5.72966L14.3799 4.74072L14.2315 3.75179C14.2913 3.74283 14.337 3.74365 14.3301 3.74365L14.3301 4.74365ZM4.46387 0.987793L4.46382 1.98779C5.31868 1.98784 6.11974 2.32096 6.72415 2.93277L7.43555 2.22998L8.14695 1.52719C7.16624 0.534472 5.85258 -0.012135 4.46392 -0.012207L4.46387 0.987793ZM7.43555 2.22998L6.72473 2.93335C7.69443 3.91333 7.93656 5.41 7.34269 6.64671L8.24414 7.07959L9.14559 7.51247C10.1015 5.52191 9.71691 3.11378 8.14637 1.52661L7.43555 2.22998ZM8.24414 7.07959L8.95768 6.37898L8.42838 5.83991L7.71484 6.54053L7.0013 7.24114L7.5306 7.7802L8.24414 7.07959ZM7.71484 6.54053L8.64569 6.90594C9.2833 5.28172 8.96004 3.35242 7.65157 2.02889L6.94043 2.73193L6.22928 3.43498C6.95651 4.17059 7.14568 5.25377 6.784 6.17511L7.71484 6.54053ZM6.94043 2.73193L7.64986 2.02716C6.8034 1.17511 5.66869 0.695801 4.46484 0.695801V1.6958V2.6958C5.12867 2.6958 5.75481 2.95737 6.231 3.43671L6.94043 2.73193ZM4.46484 1.6958L4.46471 0.695801C3.26096 0.695957 2.12694 1.17535 1.28077 2.02719L1.99023 2.73193L2.6997 3.43668C3.17583 2.95736 3.8014 2.69589 4.46497 2.6958L4.46484 1.6958ZM1.99023 2.73193L1.27966 2.02831C-0.471568 3.79684 -0.472692 6.66843 1.28036 8.43528L1.99023 7.73096L2.70011 7.02663C1.72153 6.04034 1.72058 4.42547 2.70081 3.43556L1.99023 2.73193ZM1.99023 7.73096L1.27987 8.43479C2.12781 9.29059 3.26289 9.76596 4.46471 9.76611L4.46484 8.76611L4.46497 7.76611C3.79966 7.76603 3.1751 7.50603 2.7006 7.02712L1.99023 7.73096ZM4.46484 8.76611V9.76611C5.07511 9.76611 5.67076 9.64524 6.22256 9.40909L5.8291 8.48975L5.43565 7.5704C5.13714 7.69816 4.80964 7.76611 4.46484 7.76611V8.76611ZM5.8291 8.48975L5.11679 9.19161L5.6412 9.72383L6.35352 9.02197L7.06583 8.32011L6.54142 7.78789L5.8291 8.48975ZM6.35352 9.02197L5.89854 8.13147C4.67772 8.75522 3.18876 8.5263 2.20218 7.53163L1.49219 8.23584L0.782197 8.94005C2.38184 10.5528 4.81294 10.9321 6.8085 9.91247L6.35352 9.02197ZM1.49219 8.23584L2.20309 7.53255C0.949876 6.26576 0.950414 4.19816 2.20272 2.93365L1.49219 2.22998L0.781659 1.52631C-1.24298 3.57069 -1.24244 6.89349 0.781282 8.93913L1.49219 8.23584ZM1.49219 2.22998L2.20239 2.93398C2.80845 2.32258 3.60977 1.98779 4.46387 1.98779V0.987793V-0.012207C3.07266 -0.012207 1.76105 0.538297 0.781987 1.52598L1.49219 2.22998ZM4.46582 2.16748V3.16748C5.0085 3.16748 5.51556 3.37826 5.90507 3.76899L6.61328 3.06299L7.32149 2.35698C6.56072 1.59384 5.54564 1.16748 4.46582 1.16748V2.16748ZM6.61328 3.06299L5.90122 3.76511C6.45727 4.32903 6.62787 5.14663 6.3985 5.86861L7.35156 6.17139L8.30462 6.47416C8.74801 5.0785 8.42701 3.47814 7.32534 2.36087L6.61328 3.06299ZM7.35156 6.17139L8.06234 5.46797L7.03695 4.43184L6.32617 5.13525L5.61539 5.83867L6.64078 6.8748L7.35156 6.17139ZM6.32617 5.13525L7.03184 4.42672C6.58189 3.97858 5.98267 3.76354 5.36486 3.79155L5.41016 4.79053L5.45545 5.7895C5.54221 5.78557 5.5877 5.81113 5.6205 5.84379L6.32617 5.13525ZM5.41016 4.79053L6.01016 5.59053L6.01406 5.5876L5.41406 4.7876L4.81406 3.9876L4.81016 3.99053L5.41016 4.79053ZM5.41406 4.7876L5.36725 3.78869C4.75962 3.81717 4.2024 4.08317 3.78365 4.50478L4.49316 5.20947L5.20268 5.91416C5.29339 5.82284 5.3869 5.78997 5.46088 5.7865L5.41406 4.7876ZM4.49316 5.20947L3.78014 4.50833C2.92601 5.37694 2.79435 6.83153 3.70726 7.76155L4.4209 7.06104L5.13454 6.36052C5.10492 6.33035 5.0762 6.27641 5.07957 6.18916C5.08298 6.1008 5.12079 5.99746 5.20619 5.91061L4.49316 5.20947ZM4.4209 7.06104L3.7089 7.76321L4.75577 8.82474L5.46777 8.12256L6.17978 7.42038L5.1329 6.35886L4.4209 7.06104ZM5.46777 8.12256L5.14062 7.17759C4.91204 7.25672 4.68896 7.29736 4.46582 7.29736V8.29736V9.29736C4.93841 9.29736 5.38274 9.21023 5.79492 9.06753L5.46777 8.12256ZM4.46582 8.29736L4.46588 7.29736C3.92135 7.29733 3.41465 7.08664 3.03067 6.69803L2.31934 7.40088L1.608 8.10373C2.36882 8.87373 3.38829 9.2973 4.46576 9.29736L4.46582 8.29736ZM2.31934 7.40088L3.02988 6.69723C2.23178 5.8913 2.23181 4.57249 3.02986 3.76666L2.31934 3.06299L1.60881 2.35932C0.0388069 3.94463 0.0388356 6.51918 1.60879 8.10453L2.31934 7.40088ZM2.31934 3.06299L3.02968 3.76685C3.41439 3.37859 3.92164 3.16751 4.46588 3.16748L4.46582 2.16748L4.46576 1.16748C3.38776 1.16754 2.36913 1.59199 1.609 2.35913L2.31934 3.06299Z" fill="#0B8140" mask="url(#path-1-inside-1_12498_18)"/>
</svg>
