<svg width="19" height="18" viewBox="0 0 19 18" fill="none" xmlns="http://www.w3.org/2000/svg">
<path d="M9.71484 0.5C14.3973 0.5 18.2148 4.31759 18.2148 9C18.2148 13.6824 14.3973 17.5 9.71484 17.5C5.03243 17.5 1.21484 13.6824 1.21484 9C1.21484 4.31759 5.03243 0.5 9.71484 0.5ZM9.71484 3.10059C7.4539 3.10059 5.61452 4.93751 5.61426 7.19727C5.61426 7.47327 5.83831 7.69704 6.11426 7.69727H7.91504C8.19118 7.69727 8.41504 7.47341 8.41504 7.19727C8.41531 6.48678 9.00369 5.89941 9.71484 5.89941C10.426 5.89943 11.0144 6.48678 11.0146 7.19727C11.0146 7.58563 10.8469 7.83079 10.5039 8.12793L10.1025 8.4502H10.1016C9.73693 8.73039 9.27835 9.07905 8.92383 9.58984C8.55827 10.1166 8.31934 10.7881 8.31934 11.7002C8.31946 11.8984 8.43618 12.0677 8.60352 12.1484C8.43321 12.2282 8.31445 12.4001 8.31445 12.6006V14.3994C8.31445 14.6755 8.53838 14.8993 8.81445 14.8994H10.6152C10.8913 14.8993 11.1152 14.6755 11.1152 14.3994V12.6006C11.1152 12.4017 10.9983 12.2309 10.8301 12.1504C11.0005 12.0708 11.12 11.9007 11.1201 11.7002C11.1201 11.0628 11.4598 10.6625 12 10.1729L12.2432 9.95605C12.9188 9.36372 13.8154 8.60415 13.8154 7.19727C13.8152 4.93744 11.9758 3.10059 9.71484 3.10059Z" stroke="#0B8140" stroke-linejoin="round"/>
</svg>
