<svg width="19" height="19" viewBox="0 0 19 19" fill="none" xmlns="http://www.w3.org/2000/svg">
<path d="M9.33594 0.79541H10.5732L10.6211 0.808105L10.6572 0.842285L10.6611 0.849121C10.7521 0.993014 11.1368 1.63638 11.3994 2.1167L11.6055 2.51807C11.658 2.63363 11.7528 2.72544 11.8701 2.77393L13.2197 3.33154C13.3371 3.38007 13.4691 3.3823 13.5879 3.3374C13.8076 3.2542 14.2286 3.13329 14.6152 3.02881L15.4375 2.81689C15.4537 2.81319 15.4714 2.81324 15.4873 2.81787L15.5293 2.84326L15.5322 2.84619L16.4121 3.72119C16.4238 3.73313 16.4328 3.74809 16.4375 3.76416C16.4421 3.78039 16.4422 3.7975 16.4385 3.81396C16.3879 4.01153 16.2069 4.71683 16.0557 5.23193L15.918 5.66553C15.8851 5.75412 15.8776 5.84961 15.8965 5.94092L15.9248 6.03076L16.4824 7.38037C16.5306 7.4969 16.6208 7.59135 16.7354 7.64404C16.9438 7.73995 17.3262 7.9529 17.6738 8.15381L18.4053 8.58838L18.4102 8.59131C18.4239 8.59981 18.4356 8.61235 18.4434 8.62646L18.4551 8.67236V9.91748C18.4552 9.93436 18.4506 9.95157 18.4424 9.96631L18.4082 10.0015L18.4004 10.0063C18.2094 10.1271 17.1278 10.7712 16.7305 10.9517C16.6439 10.991 16.5711 11.0539 16.5195 11.1323L16.4756 11.2153L15.917 12.5659C15.8807 12.6539 15.8707 12.7498 15.8867 12.8423L15.9121 12.9341C15.9953 13.1539 16.1153 13.5749 16.2197 13.9614L16.4316 14.7837C16.4353 14.7998 16.4353 14.8166 16.4307 14.8325L16.4053 14.8745L16.4033 14.8765L15.5293 15.7515H15.5283C15.5163 15.7635 15.5017 15.773 15.4854 15.7778C15.4689 15.7826 15.4512 15.7826 15.4346 15.7788H15.4336C15.2346 15.7278 14.5308 15.547 14.0166 15.396L13.583 15.2583C13.4944 15.2254 13.3989 15.2179 13.3076 15.2368L13.2188 15.2651L11.8682 15.8228C11.7809 15.8588 11.7064 15.9188 11.6523 15.9946L11.6055 16.0757C11.5096 16.2842 11.2956 16.6665 11.0947 17.0142L10.6602 17.7456L10.6592 17.7476C10.6499 17.7622 10.6372 17.7744 10.6221 17.7827C10.6069 17.7911 10.5896 17.7954 10.5723 17.7954H9.33301C9.31612 17.7955 9.29892 17.791 9.28418 17.7827L9.24902 17.7485L9.24414 17.7407L8.79395 16.9829C8.69462 16.8109 8.5935 16.6324 8.50586 16.4722L8.29883 16.0708C8.25949 15.9842 8.19657 15.9114 8.11816 15.8599L8.03418 15.8159L6.68457 15.2573C6.59661 15.221 6.50071 15.211 6.4082 15.2271L6.31641 15.2524C5.87683 15.4189 4.63307 15.734 4.4668 15.772C4.45066 15.7757 4.43387 15.7756 4.41797 15.771L4.37598 15.7456L4.37402 15.7437L3.49902 14.8696V14.8687L3.47266 14.8257C3.46789 14.8093 3.46793 14.7916 3.47168 14.7749L3.4707 14.7739C3.539 14.5073 3.84124 13.3302 3.99219 12.9233C4.02505 12.8347 4.03262 12.7393 4.01367 12.6479L3.98535 12.5591L3.42773 11.2085C3.39164 11.1212 3.33173 11.0468 3.25586 10.9927L3.1748 10.9458L2.75781 10.729C2.59281 10.6385 2.41011 10.5355 2.23633 10.4351L1.50488 10.0005L1.50293 9.99951L1.46777 9.9624C1.45939 9.9472 1.45509 9.92995 1.45508 9.9126V8.67627L1.46777 8.62939L1.50195 8.59326L1.50879 8.58936C1.70059 8.46816 2.78042 7.82552 3.17773 7.64502C3.26445 7.60564 3.33712 7.54195 3.38867 7.46338L3.43359 7.38037L3.99121 6.03076C4.03974 5.91336 4.04196 5.78143 3.99707 5.6626C3.91387 5.44294 3.79296 5.02188 3.68848 4.63525L3.47656 3.81299C3.47286 3.7968 3.47291 3.77913 3.47754 3.76318L3.50293 3.72119L3.50586 3.71826L4.37988 2.83936C4.39196 2.82724 4.4074 2.81776 4.42383 2.81299C4.44005 2.80836 4.45716 2.80833 4.47363 2.81201V2.81104C4.73823 2.8788 5.9177 3.18137 6.3252 3.33252C6.44333 3.37634 6.57399 3.37381 6.69043 3.32568L8.04004 2.76807C8.12732 2.73199 8.20174 2.67206 8.25586 2.59619L8.30371 2.51514C8.39961 2.30665 8.61257 1.92429 8.81348 1.57666L9.24805 0.845215L9.24902 0.843262C9.25826 0.828661 9.27102 0.816479 9.28613 0.808105L9.33594 0.79541ZM11.6543 5.20752C10.8467 4.87223 9.95743 4.7838 9.09961 4.95361C8.24191 5.12346 7.45386 5.544 6.83496 6.16162C6.21594 6.77951 5.79349 7.56763 5.62207 8.42529C5.45074 9.28272 5.53732 10.1718 5.87109 10.98C6.205 11.7882 6.77144 12.4797 7.49805 12.9663C8.13403 13.3921 8.8684 13.6447 9.62793 13.7017L9.95508 13.7144C11.1271 13.7138 12.2515 13.2483 13.0811 12.4204C13.8587 11.6442 14.3183 10.6082 14.375 9.51611L14.3809 9.29639V9.29541C14.3816 8.42094 14.1229 7.56593 13.6377 6.83838C13.1524 6.11073 12.462 5.54296 11.6543 5.20752Z" stroke="#0B8140" stroke-linejoin="round"/>
</svg>
